<svg width="16" height="19" viewBox="0 0 16 19" fill="none" xmlns="http://www.w3.org/2000/svg">
<path d="M0.955213 5.04676H3.7301C3.84785 5.04675 3.96078 5.00139 4.04404 4.92066C4.1273 4.83992 4.17408 4.73041 4.17408 4.61623V1.25273C4.17408 1.13855 4.1273 1.02905 4.04404 0.94831C3.96078 0.867571 3.84785 0.82221 3.7301 0.822205H0.955213C0.837463 0.82221 0.724538 0.867571 0.641276 0.94831C0.558015 1.02905 0.511236 1.13855 0.51123 1.25273V4.61623C0.511236 4.73041 0.558015 4.83992 0.641276 4.92066C0.724538 5.00139 0.837463 5.04675 0.955213 5.04676ZM1.39919 1.68326H3.28612V4.1857H1.39919V1.68326Z" fill="#6A6E71"/>
<path d="M0.954968 9.63447H12.7482C12.866 9.63446 12.9789 9.5891 13.0622 9.50836C13.1454 9.42762 13.1922 9.31812 13.1922 9.20394V5.84044C13.1922 5.72626 13.1454 5.61676 13.0622 5.53602C12.9789 5.45528 12.866 5.40992 12.7482 5.40991H0.954968C0.837219 5.40992 0.724294 5.45528 0.641032 5.53602C0.557771 5.61676 0.510992 5.72626 0.510986 5.84044V9.20394C0.510992 9.31812 0.557771 9.42762 0.641032 9.50836C0.724294 9.5891 0.837219 9.63446 0.954968 9.63447ZM1.39895 6.27097H12.3043V8.77341H1.39895V6.27097Z" fill="#6A6E71"/>
<path d="M0.954968 14.2223H6.50474C6.62249 14.2223 6.73542 14.177 6.81868 14.0962C6.90194 14.0155 6.94872 13.906 6.94873 13.7918V10.4283C6.94872 10.3141 6.90194 10.2046 6.81868 10.1239C6.73542 10.0431 6.62249 9.99778 6.50474 9.99777H0.954968C0.837219 9.99778 0.724294 10.0431 0.641032 10.1239C0.557771 10.2046 0.510992 10.3141 0.510986 10.4283V13.7918C0.510992 13.906 0.557771 14.0155 0.641032 14.0962C0.724294 14.177 0.837219 14.2223 0.954968 14.2223ZM1.39895 10.8588H6.06076V13.3613H1.39895V10.8588Z" fill="#6A6E71"/>
<path d="M15.6316 14.5856H0.874244C0.777904 14.5856 0.685511 14.6287 0.617387 14.7054C0.549264 14.7822 0.510991 14.8862 0.510986 14.9947V18.1908C0.510991 18.2993 0.549264 18.4034 0.617387 18.4801C0.685511 18.5568 0.777904 18.5999 0.874244 18.5999H15.6316C15.7279 18.5999 15.8203 18.5568 15.8885 18.4801C15.9566 18.4034 15.9949 18.2993 15.9949 18.1908V14.9947C15.9949 14.8862 15.9566 14.7822 15.8885 14.7054C15.8203 14.6287 15.7279 14.5856 15.6316 14.5856ZM15.2683 17.7817H1.2375V15.4038H15.2683V17.7817Z" fill="#6A6E71"/>
</svg>
