<svg width="18" height="17" viewBox="0 0 18 17" fill="none" xmlns="http://www.w3.org/2000/svg">
<path d="M12.5645 8.1706C13.1298 8.1706 13.588 7.71235 13.588 7.14706C13.588 6.58178 13.1298 6.12353 12.5645 6.12353C11.9992 6.12353 11.5409 6.58178 11.5409 7.14706C11.5409 7.71235 11.9992 8.1706 12.5645 8.1706Z" fill="white" stroke="white" stroke-width="0.142222"/>
<path d="M9.42484 8.1706C9.99012 8.1706 10.4484 7.71235 10.4484 7.14706C10.4484 6.58178 9.99012 6.12353 9.42484 6.12353C8.85955 6.12353 8.4013 6.58178 8.4013 7.14706C8.4013 7.71235 8.85955 8.1706 9.42484 8.1706Z" fill="white" stroke="white" stroke-width="0.142222"/>
<path d="M6.30301 8.1706C6.86829 8.1706 7.32654 7.71235 7.32654 7.14706C7.32654 6.58178 6.86829 6.12353 6.30301 6.12353C5.73773 6.12353 5.27947 6.58178 5.27947 7.14706C5.27947 7.71235 5.73773 8.1706 6.30301 8.1706Z" fill="white" stroke="white" stroke-width="0.142222"/>
<path d="M4.06646 16.7172L4.06613 16.7179L4.07577 16.7211L4.07791 16.7218C4.1304 16.7393 4.19251 16.76 4.27463 16.76C4.38118 16.76 4.48398 16.7178 4.56422 16.6576L4.56428 16.6577L4.56708 16.6553L8.67447 13.2325H17.4498C17.7184 13.2325 17.9266 13.0243 17.9266 12.7557V1.45011C17.9266 1.18155 17.7184 0.973338 17.4498 0.973338H1.20571C0.93715 0.973338 0.728938 1.18155 0.728938 1.45011V12.7557C0.728938 13.0243 0.93715 13.2325 1.20571 13.2325H3.98772L3.81571 16.2597C3.79569 16.4478 3.89965 16.6338 4.06646 16.7172ZM4.85928 12.4291L4.85435 12.4229L4.84818 12.418C4.75368 12.3424 4.63244 12.279 4.50392 12.279H1.68248V1.92688H17.0083V12.279H8.52526C8.40259 12.279 8.29967 12.3201 8.21803 12.3814L8.21798 12.3813L8.21515 12.3837L4.8319 15.2059L4.98035 12.7812C5.00113 12.6464 4.93309 12.5214 4.85928 12.4291Z" fill="white" stroke="white" stroke-width="0.142222"/>
</svg>
