<svg width="16" height="19" viewBox="0 0 16 19" fill="none" xmlns="http://www.w3.org/2000/svg">
<path d="M15.6193 18.1407L15.6193 1.10365C15.6193 0.7647 15.286 0.558276 14.9703 0.558276L1.69619 0.558276C1.38042 0.558276 1.04712 0.764699 1.04712 1.10365L1.04711 18.1407C1.04711 18.4796 1.38042 18.6861 1.69619 18.6861L5.40846 18.6861L11.258 18.6861L14.9703 18.6861C15.286 18.6861 15.6193 18.4796 15.6193 18.1407ZM6.35808 10.1675L10.3081 10.1675C9.99728 10.8508 9.1903 11.2184 8.33342 11.2187C7.47647 11.2191 6.66918 10.8522 6.35808 10.1675ZM10.3081 9.07679L6.35816 9.07679C6.66901 8.39368 7.47599 8.02618 8.33287 8.02578C9.18985 8.02538 9.99711 8.39222 10.3081 9.07679ZM14.3212 9.07679L11.658 9.07679C11.2978 7.62911 9.78122 6.94014 8.33329 6.93988C6.88529 6.93962 5.36856 7.62813 5.00819 9.07679L2.34526 9.07679L2.34526 1.64902L4.76294 1.64902C4.84824 3.18466 6.45711 4.35102 8.33323 4.35102C10.2093 4.35102 11.8182 3.18466 11.9035 1.64902L14.3212 1.64902L14.3212 9.07679ZM8.33323 3.26028C7.09751 3.26028 6.15131 2.51802 6.0641 1.65137L10.6024 1.65137C10.5151 2.51802 9.56894 3.26028 8.33323 3.26028ZM6.0641 17.5953C6.15131 16.7287 7.09751 15.9864 8.33323 15.9864C9.56894 15.9864 10.5151 16.7287 10.6024 17.5953L6.0641 17.5953ZM11.9034 17.5953C11.8166 16.0608 10.2084 14.8957 8.33323 14.8957C6.45807 14.8957 4.84988 16.0608 4.76307 17.5953L2.34526 17.5953L2.34526 10.1675L5.00819 10.1675C5.36836 11.6153 6.88496 12.3044 8.33292 12.3047C9.78095 12.3049 11.2977 11.6164 11.658 10.1675L14.3212 10.1675L14.3212 17.5953L11.9034 17.5953Z" fill="#050C42" stroke="#050C42" stroke-width="0.35"/>
</svg>
