<svg width="19" height="19" viewBox="0 0 19 19" fill="none" xmlns="http://www.w3.org/2000/svg">
<mask id="path-1-outside-1_1_1128" maskUnits="userSpaceOnUse" x="0.0888672" y="-0.35556" width="19" height="19" fill="black">
<rect fill="white" x="0.0888672" y="-0.35556" width="19" height="19"/>
<path d="M18.7296 8.44145L10.2652 0.755139C10.1869 0.683953 10.0842 0.64444 9.97772 0.64444C9.8712 0.64444 9.76858 0.683953 9.69021 0.755139L1.22591 8.44145C1.16303 8.49856 1.11908 8.57306 1.0998 8.65521C1.08053 8.73736 1.08683 8.82335 1.11789 8.90191C1.14894 8.98047 1.20331 9.04795 1.27386 9.09553C1.34442 9.1431 1.42788 9.16856 1.51334 9.16857H2.68397V18.0033C2.68397 18.1144 2.72869 18.221 2.8083 18.2995C2.88791 18.3781 2.99589 18.4222 3.10848 18.4222H7.77804C7.89063 18.4222 7.9986 18.3781 8.07821 18.2995C8.15782 18.221 8.20255 18.1144 8.20255 18.0033V13.8144H11.6758V18.0033C11.6758 18.1144 11.7205 18.221 11.8001 18.2995C11.8797 18.3781 11.9877 18.4222 12.1003 18.4222H16.7699C16.8824 18.4222 16.9904 18.3781 17.07 18.2995C17.1496 18.221 17.1944 18.1144 17.1944 18.0033V9.16857H18.4422C18.5276 9.16856 18.6111 9.1431 18.6817 9.09553C18.7522 9.04795 18.8066 8.98047 18.8376 8.90191C18.8687 8.82335 18.875 8.73736 18.8557 8.65521C18.8364 8.57306 18.7925 8.49856 18.7296 8.44145ZM16.7699 8.33079C16.6573 8.33079 16.5493 8.37492 16.4697 8.45348C16.3901 8.53204 16.3453 8.63858 16.3453 8.74968V17.5844H12.5248V13.3955C12.5248 13.2844 12.4801 13.1779 12.4005 13.0993C12.3208 13.0208 12.2129 12.9767 12.1003 12.9767H7.77804C7.66546 12.9767 7.55748 13.0208 7.47787 13.0993C7.39826 13.1779 7.35354 13.2844 7.35354 13.3955V17.5844H3.53298V8.74968C3.53298 8.69467 3.522 8.6402 3.50067 8.58938C3.47933 8.53856 3.44807 8.49238 3.40865 8.45348C3.36923 8.41458 3.32243 8.38373 3.27093 8.36268C3.21942 8.34163 3.16422 8.33079 3.10848 8.33079H2.60154L9.97776 1.63264L17.354 8.33079H16.7699Z"/>
</mask>
<path d="M18.7296 8.44145L10.2652 0.755139C10.1869 0.683953 10.0842 0.64444 9.97772 0.64444C9.8712 0.64444 9.76858 0.683953 9.69021 0.755139L1.22591 8.44145C1.16303 8.49856 1.11908 8.57306 1.0998 8.65521C1.08053 8.73736 1.08683 8.82335 1.11789 8.90191C1.14894 8.98047 1.20331 9.04795 1.27386 9.09553C1.34442 9.1431 1.42788 9.16856 1.51334 9.16857H2.68397V18.0033C2.68397 18.1144 2.72869 18.221 2.8083 18.2995C2.88791 18.3781 2.99589 18.4222 3.10848 18.4222H7.77804C7.89063 18.4222 7.9986 18.3781 8.07821 18.2995C8.15782 18.221 8.20255 18.1144 8.20255 18.0033V13.8144H11.6758V18.0033C11.6758 18.1144 11.7205 18.221 11.8001 18.2995C11.8797 18.3781 11.9877 18.4222 12.1003 18.4222H16.7699C16.8824 18.4222 16.9904 18.3781 17.07 18.2995C17.1496 18.221 17.1944 18.1144 17.1944 18.0033V9.16857H18.4422C18.5276 9.16856 18.6111 9.1431 18.6817 9.09553C18.7522 9.04795 18.8066 8.98047 18.8376 8.90191C18.8687 8.82335 18.875 8.73736 18.8557 8.65521C18.8364 8.57306 18.7925 8.49856 18.7296 8.44145ZM16.7699 8.33079C16.6573 8.33079 16.5493 8.37492 16.4697 8.45348C16.3901 8.53204 16.3453 8.63858 16.3453 8.74968V17.5844H12.5248V13.3955C12.5248 13.2844 12.4801 13.1779 12.4005 13.0993C12.3208 13.0208 12.2129 12.9767 12.1003 12.9767H7.77804C7.66546 12.9767 7.55748 13.0208 7.47787 13.0993C7.39826 13.1779 7.35354 13.2844 7.35354 13.3955V17.5844H3.53298V8.74968C3.53298 8.69467 3.522 8.6402 3.50067 8.58938C3.47933 8.53856 3.44807 8.49238 3.40865 8.45348C3.36923 8.41458 3.32243 8.38373 3.27093 8.36268C3.21942 8.34163 3.16422 8.33079 3.10848 8.33079H2.60154L9.97776 1.63264L17.354 8.33079H16.7699Z" fill="#6A6E71"/>
<path d="M18.7296 8.44145L10.2652 0.755139C10.1869 0.683953 10.0842 0.64444 9.97772 0.64444C9.8712 0.64444 9.76858 0.683953 9.69021 0.755139L1.22591 8.44145C1.16303 8.49856 1.11908 8.57306 1.0998 8.65521C1.08053 8.73736 1.08683 8.82335 1.11789 8.90191C1.14894 8.98047 1.20331 9.04795 1.27386 9.09553C1.34442 9.1431 1.42788 9.16856 1.51334 9.16857H2.68397V18.0033C2.68397 18.1144 2.72869 18.221 2.8083 18.2995C2.88791 18.3781 2.99589 18.4222 3.10848 18.4222H7.77804C7.89063 18.4222 7.9986 18.3781 8.07821 18.2995C8.15782 18.221 8.20255 18.1144 8.20255 18.0033V13.8144H11.6758V18.0033C11.6758 18.1144 11.7205 18.221 11.8001 18.2995C11.8797 18.3781 11.9877 18.4222 12.1003 18.4222H16.7699C16.8824 18.4222 16.9904 18.3781 17.07 18.2995C17.1496 18.221 17.1944 18.1144 17.1944 18.0033V9.16857H18.4422C18.5276 9.16856 18.6111 9.1431 18.6817 9.09553C18.7522 9.04795 18.8066 8.98047 18.8376 8.90191C18.8687 8.82335 18.875 8.73736 18.8557 8.65521C18.8364 8.57306 18.7925 8.49856 18.7296 8.44145ZM16.7699 8.33079C16.6573 8.33079 16.5493 8.37492 16.4697 8.45348C16.3901 8.53204 16.3453 8.63858 16.3453 8.74968V17.5844H12.5248V13.3955C12.5248 13.2844 12.4801 13.1779 12.4005 13.0993C12.3208 13.0208 12.2129 12.9767 12.1003 12.9767H7.77804C7.66546 12.9767 7.55748 13.0208 7.47787 13.0993C7.39826 13.1779 7.35354 13.2844 7.35354 13.3955V17.5844H3.53298V8.74968C3.53298 8.69467 3.522 8.6402 3.50067 8.58938C3.47933 8.53856 3.44807 8.49238 3.40865 8.45348C3.36923 8.41458 3.32243 8.38373 3.27093 8.36268C3.21942 8.34163 3.16422 8.33079 3.10848 8.33079H2.60154L9.97776 1.63264L17.354 8.33079H16.7699Z" stroke="#6A6E71" stroke-width="0.2" mask="url(#path-1-outside-1_1_1128)"/>
</svg>
