<svg width="17" height="13" viewBox="0 0 17 13" fill="none" xmlns="http://www.w3.org/2000/svg">
<path d="M16.6014 5.8008H14.809C14.6194 2.57793 11.948 0.0444336 8.69067 0.0444336C7.63936 0.0444336 6.60528 0.320188 5.70908 0.819992L5.38162 1.00957C5.24374 1.09575 5.19204 1.26809 5.27821 1.40597L5.79525 2.19876C5.88143 2.31941 6.03654 2.37111 6.17441 2.28494L6.45017 2.12982C7.13955 1.75066 7.91511 1.54385 8.69067 1.54385C11.1208 1.54385 13.1027 3.40519 13.2923 5.78357H11.5516C11.3276 5.78357 11.1897 6.02485 11.3103 6.21443L13.8266 10.0922C13.93 10.2646 14.1885 10.2646 14.2919 10.0922L16.8082 6.21443C16.9461 6.04209 16.8254 5.8008 16.6014 5.8008Z" fill="#050C42"/>
<path d="M11.5859 10.1611C11.4997 10.0405 11.3446 9.98878 11.2067 10.075L10.931 10.2301C10.2243 10.6092 9.48325 10.816 8.69045 10.816C6.26037 10.816 4.27839 8.93747 4.07157 6.57632H5.81227C6.03632 6.57632 6.1742 6.33504 6.05355 6.14546L3.5373 2.25043C3.43389 2.07808 3.17537 2.07808 3.07196 2.25043L0.555705 6.12822C0.435062 6.3178 0.572939 6.55909 0.79699 6.55909H2.57216C2.76174 9.76473 5.43311 12.3155 8.69045 12.3155C9.72453 12.3155 10.7586 12.0397 11.672 11.5399L11.9995 11.3503C12.1374 11.2641 12.1891 11.0918 12.1029 10.9539L11.5859 10.1611Z" fill="#050C42"/>
</svg>
