<svg width="13" height="12" viewBox="0 0 13 12" fill="none" xmlns="http://www.w3.org/2000/svg">
<path d="M9.37573 11.2874L9.37572 11.2874L9.37794 11.2885C9.41153 11.3053 9.44177 11.3162 9.47476 11.3217C9.50363 11.3265 9.53155 11.3265 9.55535 11.3265L9.55894 11.3265L9.56245 11.3265C9.61614 11.3265 9.70421 11.3266 9.78673 11.2493C9.89322 11.1733 9.96578 11.0289 9.93003 10.8781L9.32707 7.41762L11.84 4.95701C11.962 4.86918 11.988 4.71301 11.9552 4.58208C11.9154 4.42254 11.7919 4.34972 11.6643 4.31784L11.6645 4.31727L11.6533 4.3157L8.11009 3.81702L6.56203 0.668426L6.56171 0.667788C6.52873 0.601813 6.48424 0.545923 6.4255 0.506766C6.3661 0.467163 6.29835 0.44886 6.22636 0.44886C6.06309 0.44886 5.95528 0.569898 5.89766 0.656323L5.8969 0.655811L5.89069 0.668427L4.34258 3.81714L0.852485 4.31573L0.852405 4.31516L0.8417 4.31784C0.701136 4.35298 0.591753 4.45823 0.553092 4.57422C0.511291 4.69962 0.55599 4.84713 0.658842 4.94998L0.65964 4.95077L3.17898 7.41762L2.57601 10.8781C2.5393 11.0329 2.6168 11.1811 2.72797 11.2552L2.72751 11.2559L2.73943 11.2619C2.84572 11.315 3.00175 11.3697 3.13453 11.2852L6.25302 9.6342L9.37573 11.2874ZM6.43615 8.88598L6.43616 8.88596L6.43403 8.88489C6.40043 8.86809 6.3702 8.85725 6.33721 8.85175C6.30833 8.84694 6.28042 8.84695 6.25662 8.84696L6.25302 8.84697C6.2317 8.84697 6.21203 8.85185 6.20152 8.85459C6.19371 8.85662 6.18395 8.85948 6.17588 8.86184C6.17257 8.86281 6.16955 8.86369 6.16707 8.8644C6.14475 8.87078 6.13039 8.87363 6.11972 8.87363H6.09328L6.06989 8.88598L3.43498 10.278L3.93207 7.34516L3.93357 7.33631V7.32733C3.93357 7.27663 3.92529 7.2194 3.90886 7.16599C3.89288 7.11408 3.86613 7.05575 3.82235 7.01196L3.82144 7.01107L1.70999 4.9493L4.63494 4.52791C4.7709 4.52518 4.89284 4.45484 4.9385 4.32948L6.25302 1.67564L7.57045 4.33536L7.57823 4.35106L7.59061 4.36344L7.5924 4.36523C7.61819 4.39103 7.65646 4.4293 7.69994 4.46093C7.74106 4.49083 7.80044 4.52512 7.87049 4.52782L10.7961 4.9493L8.6846 7.01107L8.6837 7.01196C8.6461 7.04957 8.6114 7.10234 8.58958 7.15907C8.56917 7.21215 8.55494 7.28232 8.57514 7.35205L9.07107 10.278L6.43615 8.88598Z" fill="#050C42" stroke="#050C42" stroke-width="0.213333"/>
</svg>
