<svg width="162" height="24" viewBox="0 0 162 24" fill="none" xmlns="http://www.w3.org/2000/svg">
<path d="M7.01577 4.72884C5.636 4.72884 4.35086 5.13395 3.26922 5.83233V0.000183105H0.0664062V12.1463H0.0787198C0.291938 15.8209 3.31588 18.7347 7.01577 18.7347C10.8537 18.7347 13.9651 15.5992 13.9651 11.7314C13.9651 7.86373 10.8537 4.72884 7.01577 4.72884ZM7.01577 15.5068C4.94645 15.5068 3.26922 13.8168 3.26922 11.7314C3.26922 9.64673 4.94645 7.95606 7.01577 7.95606C9.08508 7.95606 10.7623 9.64608 10.7623 11.7314C10.7617 13.8168 9.08444 15.5068 7.01577 15.5068Z" fill="#B9BCC6"/>
<path d="M22.7675 4.72858C18.89 4.72858 15.7468 7.86411 15.7468 11.7318C15.7468 15.5995 18.89 18.7351 22.7675 18.7351C24.1615 18.7351 25.4602 18.33 26.5523 17.6316V18.7351H29.7881V11.7318C29.7881 7.86346 26.6449 4.72858 22.7675 4.72858ZM22.7675 15.5066C20.6774 15.5066 18.9827 13.8165 18.9827 11.7312C18.9827 9.64646 20.6774 7.9558 22.7675 7.9558C24.8575 7.9558 26.5523 9.64581 26.5523 11.7312C26.5523 13.8165 24.8575 15.5066 22.7675 15.5066Z" fill="#B9BCC6"/>
<path d="M76.5747 11.813C76.5747 10.928 75.865 10.2101 74.9895 10.2101H66.2229C66.4037 9.86283 66.9215 8.98369 67.976 8.46348C68.6545 8.1286 69.2741 8.08113 69.519 8.07203C69.7569 8.06293 70.1995 8.06878 70.7277 8.22224C71.2902 8.38545 71.7024 8.64425 71.9532 8.82958C72.7899 8.09609 73.6272 7.36195 74.4639 6.62846C73.9914 6.19734 73.1107 5.50807 71.8249 5.09581C71.3136 4.93195 70.508 4.73817 69.5197 4.76028C67.1788 4.8136 65.5742 6.04063 65.2352 6.31049C65.1302 6.39437 63.676 7.57784 62.9922 9.3888C62.8276 9.82447 62.488 10.7244 62.593 11.8773C62.5937 11.8832 62.5943 11.8884 62.595 11.8942C62.5975 11.9398 62.6021 11.9833 62.6092 12.0256C62.6125 12.0522 62.6157 12.077 62.6183 12.0971C62.6196 12.0971 62.6215 12.0971 62.6228 12.0971C62.6675 12.298 62.7518 12.4489 62.7835 12.5048C63.197 13.2299 64.0648 13.3124 64.1685 13.3202C64.4608 13.3417 64.7531 13.3638 65.0453 13.3853C67.6642 13.3931 70.2825 13.4009 72.9014 13.4087C72.7024 13.7806 72.1859 14.6117 71.1716 15.1117C70.4931 15.4466 69.8735 15.494 69.6286 15.5032C69.4912 15.5084 69.0064 15.5188 68.4199 15.3529C67.2942 15.0343 66.58 14.2872 66.2644 13.9068C65.4472 14.6318 64.6306 15.3568 63.8133 16.0825C64.2968 16.6684 65.4381 17.8818 67.3233 18.48C68.3473 18.8052 69.2028 18.8253 69.6286 18.8156C71.9694 18.7622 73.5741 17.5352 73.913 17.2653C74.018 17.1815 75.4723 15.998 76.156 14.187C76.309 13.7813 76.6142 12.9717 76.5708 11.9293C76.5727 11.891 76.5747 11.8526 76.5747 11.813Z" fill="#B9BCC6"/>
<path d="M61.2784 11.7483C61.2784 11.7028 61.2758 11.6579 61.2725 11.6137C61.3237 10.5564 61.0178 9.73378 60.8649 9.32412C60.1902 7.51316 58.7554 6.32969 58.6517 6.24581C58.3173 5.97595 56.734 4.74892 54.4249 4.6956C53.3303 4.67024 52.493 4.91734 52.1502 5.03113C51.1229 5.37252 50.3718 5.90313 49.8884 6.32124C49.6602 6.50851 48.3343 7.65036 47.692 9.34883C47.5287 9.7806 47.1917 10.6721 47.296 11.8153C47.2967 11.8237 47.2973 11.8315 47.2986 11.84C47.2993 11.851 47.2999 11.8621 47.3006 11.8731C47.2584 12.9116 47.5624 13.7186 47.7153 14.123C48.3991 15.934 49.8534 17.1174 49.9584 17.2013C50.2973 17.4712 51.9019 18.6982 54.2428 18.7515C54.6692 18.7613 55.5241 18.7411 56.548 18.416C58.4326 17.8178 59.5739 16.6044 60.058 16.0185C59.2408 15.2935 58.4242 14.5684 57.607 13.8427C57.2914 14.2231 56.5765 14.9703 55.4515 15.2889C54.865 15.4547 54.3802 15.4443 54.2428 15.4391C53.9978 15.43 53.3783 15.3826 52.6997 15.0477C51.6673 14.5385 51.1502 13.686 50.9596 13.3245C53.8708 13.3329 56.7826 13.3421 59.6938 13.3505C60.5687 13.3512 61.2784 12.6339 61.2784 11.7483ZM50.9065 10.1454C51.0931 9.79101 51.6058 8.93917 52.6362 8.43132C53.3089 8.09969 53.924 8.05287 54.167 8.04312C54.4029 8.03401 54.8416 8.03987 55.3659 8.19203C55.795 8.31623 56.1358 8.497 56.3834 8.65696C57.1339 9.17326 57.526 9.85018 57.677 10.1447H50.9065V10.1454Z" fill="#B9BCC6"/>
<path d="M45.5346 16.225V4.73889H42.3039V12.1856C42.1601 14.0967 40.5353 15.604 38.5503 15.604C36.2211 15.604 34.8847 13.3535 34.7849 11.9106C34.7804 11.8416 34.7784 11.7812 34.7784 11.7317V4.73889H31.5659V11.9424H31.5666C31.5841 15.7113 34.7039 18.7617 38.5503 18.7617C39.8037 18.7617 40.9793 18.4378 41.9961 17.8708C41.9106 18.0711 41.6319 18.6667 41.1296 19.1499C40.2314 20.014 39.0584 20.096 37.2347 20.1968C36.5866 20.2325 35.6611 20.2468 34.5419 20.1317C34.5458 21.243 34.5497 22.355 34.5536 23.4663C35.1096 23.4715 35.9294 23.4715 36.9223 23.4454C38.932 23.3928 39.954 23.3603 40.8095 23.0716C41.0681 22.9844 42.3636 22.5286 43.5172 21.3341C45.3758 19.4087 45.5262 16.9513 45.5443 16.2439L45.5346 16.225Z" fill="#B9BCC6"/>
<path d="M124.622 4.85866C120.744 4.85866 117.601 7.9942 117.601 11.8619C117.601 15.7296 120.744 18.8652 124.622 18.8652C126.016 18.8652 127.315 18.4601 128.407 17.7617V18.8652H131.643V11.8619C131.643 7.99355 128.499 4.85866 124.622 4.85866ZM124.622 15.6366C122.532 15.6366 120.837 13.9466 120.837 11.8613C120.837 9.77655 122.532 8.08588 124.622 8.08588C126.712 8.08588 128.407 9.7759 128.407 11.8613C128.407 13.9466 126.713 15.6366 124.622 15.6366ZM161.943 11.8151V18.8515H158.726V11.581C158.669 10.3182 157.847 9.4098 157.672 9.22513C157.443 8.98258 156.472 8.02086 154.947 8.0176C153.664 8.015 152.592 8.69192 151.983 9.49109C151.3 10.3884 151.193 11.4549 151.176 11.6369C151.169 11.7117 151.165 11.7735 151.163 11.8157V18.8515H147.947V0.197632H151.163V5.92248C152.018 5.36456 153.307 4.77283 154.952 4.77413C157.645 4.77608 159.383 6.36661 159.817 6.79057C160.124 7.09099 161.652 8.6425 161.908 11.001C161.944 11.3352 161.947 11.6168 161.943 11.8151ZM108.826 4.8307C104.988 4.8307 101.877 7.96624 101.877 11.834C101.877 15.7017 104.988 18.8372 108.826 18.8372C112.664 18.8372 115.776 15.7017 115.776 11.834C115.776 7.96624 112.664 4.8307 108.826 4.8307ZM108.826 15.6087C106.757 15.6087 105.08 13.9187 105.08 11.8333C105.08 9.74794 106.757 8.05792 108.826 8.05792C110.896 8.05792 112.573 9.74794 112.573 11.8333C112.573 13.9187 110.896 15.6087 108.826 15.6087ZM99.9054 15.9358C99.5969 16.3604 98.1906 18.1974 95.5886 18.7C92.5873 19.28 90.3715 17.6251 90.0436 17.3715C87.3865 15.3167 87.332 12.1812 87.332 11.8209C87.332 11.3879 87.3793 8.56837 89.7273 6.53112C89.9814 6.31068 92.2458 4.41324 95.4065 4.93539C97.7674 5.32555 99.175 6.82569 99.5749 7.28477C98.8432 8.08913 98.1109 8.8935 97.3792 9.69787C97.188 9.42216 96.4946 8.49489 95.2166 8.16456C93.934 7.83293 92.5504 8.22894 91.6256 9.15945C90.5588 10.233 90.5355 11.5817 90.5355 11.8216C90.5355 12.0915 90.564 13.3263 91.5186 14.3706C91.6126 14.474 92.9036 15.8376 94.8174 15.5586C96.3118 15.3408 97.1401 14.2731 97.3053 14.0513C98.1718 14.6788 99.0389 15.307 99.9054 15.9358ZM145.924 15.9358C145.616 16.3604 144.209 18.1974 141.607 18.7C138.606 19.28 136.39 17.6251 136.062 17.3715C133.405 15.3167 133.351 12.1812 133.351 11.8209C133.351 11.3879 133.398 8.56837 135.746 6.53112C136 6.31068 138.265 4.41324 141.425 4.93539C143.786 5.32555 145.194 6.82569 145.594 7.28477C144.862 8.08913 144.13 8.8935 143.398 9.69787C143.207 9.42216 142.513 8.49489 141.235 8.16456C139.953 7.83293 138.569 8.22894 137.644 9.15945C136.578 10.233 136.554 11.5817 136.554 11.8216C136.554 12.0915 136.583 13.3263 137.537 14.3706C137.631 14.474 138.922 15.8376 140.836 15.5586C142.331 15.3408 143.159 14.2731 143.324 14.0513C144.191 14.6788 145.057 15.307 145.924 15.9358Z" fill="url(#paint0_linear_1_1016)"/>
<defs>
<linearGradient id="paint0_linear_1_1016" x1="87.3324" y1="9.53085" x2="161.945" y2="9.53085" gradientUnits="userSpaceOnUse">
<stop stop-color="#F2594B"/>
<stop offset="1" stop-color="#E8845D"/>
</linearGradient>
</defs>
</svg>
