<svg width="38" height="30" viewBox="0 0 38 30" fill="none" xmlns="http://www.w3.org/2000/svg">
<path d="M33.137 22.8741C32.1043 23.6892 30.8011 24.1778 29.3837 24.1778C26.0375 24.1778 23.3244 21.4656 23.3244 18.1214C23.3244 14.7772 26.0375 12.0649 29.3837 12.0649C30.78 12.0649 32.0634 12.5373 33.0886 13.33L37.0665 9.92102C35.057 8.03889 32.355 6.88593 29.3837 6.88593C25.9047 6.88593 22.7956 8.46518 20.7341 10.9468C18.6725 8.46642 15.5634 6.88593 12.0844 6.88593C9.85281 6.88593 7.77387 7.53533 6.02508 8.65713V0.200012H0.844482V18.6985H0.859376C1.15974 24.6353 6.071 29.3556 12.0844 29.3556C15.5634 29.3556 18.6725 27.7763 20.7341 25.2947C22.7956 27.7751 25.9047 29.3556 29.3837 29.3556C32.3774 29.3556 35.0967 28.1852 37.1111 26.2781L33.137 22.8741ZM12.0844 24.1778C8.73825 24.1778 6.02508 21.4656 6.02508 18.1214C6.02508 14.7772 8.73825 12.0649 12.0844 12.0649C15.4306 12.0649 18.1438 14.7772 18.1438 18.1214C18.1438 21.4656 15.4306 24.1778 12.0844 24.1778Z" fill="url(#paint0_linear_1_1100)"/>
<defs>
<linearGradient id="paint0_linear_1_1100" x1="0.844942" y1="14.778" x2="37.1109" y2="14.778" gradientUnits="userSpaceOnUse">
<stop stop-color="#E97665"/>
<stop offset="1" stop-color="#E79C7A"/>
</linearGradient>
</defs>
</svg>
